<svg width="18" height="22" viewBox="0 0 18 22" fill="none" xmlns="http://www.w3.org/2000/svg">
<path fill-rule="evenodd" clip-rule="evenodd" d="M15.99 11.5685C15.99 9.07343 16.0149 6.57782 15.9815 4.0832C15.9575 2.27102 15.7493 2.04238 13.9966 2.02591C10.3363 1.99196 6.67507 1.99146 3.01482 2.02391C1.25361 2.03938 1.0304 2.26653 1.02041 4.07022C0.993446 9.06045 0.992448 14.0507 1.02191 19.0409C1.0314 20.6958 1.27708 20.9554 2.8785 20.9719C6.62164 21.0103 10.3658 21.0089 14.1089 20.9704C15.7238 20.9534 15.954 20.7028 15.9795 19.0539C16.0184 16.5593 15.99 14.0637 15.99 11.5685ZM17.9894 11.0158C17.9894 13.5894 18.0123 16.1639 17.9824 18.7375C17.9569 20.9227 16.9738 21.9564 14.8442 21.9754C10.9406 22.0093 7.03651 22.0078 3.13292 21.9729C1.11221 21.9549 0.0391971 20.9307 0.0262151 18.9601C-0.00923588 13.6463 -0.00823726 8.33198 0.0262151 3.01867C0.0381985 1.16437 1.10023 0.0582829 2.90972 0.03682C6.97909 -0.0110971 11.05 -0.0130937 15.1188 0.0358218C16.9024 0.0572847 17.9489 1.19033 17.9784 3.04512C18.0198 5.70153 17.9889 8.35893 17.9894 11.0158Z" fill="#ffffff"/>
<path fill-rule="evenodd" clip-rule="evenodd" d="M3.00743 12.7682C3.00693 11.2724 3.02042 9.7762 3.00144 8.28046C2.99195 7.5326 3.11532 6.99405 4.05633 7.00005C7.37986 7.02253 10.7034 7.01304 14.0269 7.00505C14.8011 7.00305 14.9969 7.43168 14.9944 8.1161C14.9814 11.3574 14.9724 14.5986 14.9999 17.8394C15.0074 18.7026 14.6562 19.0069 13.8171 18.9999C10.577 18.9744 7.3364 18.9709 4.09629 18.9974C3.18075 19.0049 2.98945 18.5338 3.00044 17.7544C3.02441 16.0923 3.00793 14.4303 3.00743 12.7682" fill="#ffffff"/>
<path fill-rule="evenodd" clip-rule="evenodd" d="M6.00425 3.99579C5.23209 3.9951 4.45992 4.00542 3.68822 3.99131C3.23862 3.98305 2.97513 3.79274 3.00186 3.45445C3.02108 3.20976 3.21752 3.01256 3.56727 3.00981C5.18755 2.99673 6.8083 2.99708 8.42811 3.00878C8.77973 3.01119 8.9743 3.20597 8.99727 3.45135C9.02962 3.79033 8.7727 3.98374 8.32028 3.99234C7.54858 4.0068 6.77642 3.99647 6.00425 3.99579" fill="#ffffff"/>
</svg>
