<svg width="18" height="22" viewBox="0 0 18 22" fill="none" xmlns="http://www.w3.org/2000/svg">
<path d="M16.5756 9.95617C16.0983 8.88176 15.4043 7.91742 14.5372 7.12349L13.8216 6.46695C13.7973 6.44527 13.7681 6.42989 13.7365 6.42214C13.7048 6.4144 13.6718 6.41455 13.6402 6.42256C13.6087 6.43057 13.5796 6.44621 13.5555 6.46809C13.5314 6.48998 13.513 6.51745 13.502 6.5481L13.1823 7.46528C12.9831 8.04067 12.6168 8.62835 12.0979 9.2062C12.0635 9.24308 12.0242 9.25292 11.9971 9.25538C11.9701 9.25784 11.9283 9.25292 11.8914 9.21849C11.8569 9.18899 11.8397 9.14472 11.8422 9.10046C11.9332 7.62019 11.4906 5.95058 10.5218 4.13343C9.72014 2.62365 8.60625 1.44582 7.21449 0.624538L6.19896 0.0270191C6.06618 -0.0516666 5.89651 0.0516082 5.90389 0.206521L5.95798 1.38681C5.99487 2.19333 5.90143 2.90642 5.68012 3.49903C5.40964 4.22441 5.02113 4.89816 4.52443 5.50305C4.17876 5.92344 3.78697 6.30368 3.35644 6.63662C2.31952 7.43372 1.47637 8.45508 0.890132 9.62422C0.305335 10.8035 0.000713485 12.102 0 13.4183C0 14.579 0.22868 15.7027 0.681123 16.7625C1.11799 17.7829 1.74844 18.7089 2.53761 19.4894C3.33431 20.2763 4.25886 20.8959 5.28915 21.3263C6.35633 21.7738 7.48744 22 8.65543 22C9.82342 22 10.9545 21.7738 12.0217 21.3287C13.0495 20.9009 13.984 20.277 14.7732 19.4919C15.5699 18.705 16.1945 17.7854 16.6297 16.7649C17.0815 15.708 17.3132 14.5702 17.3109 13.4208C17.3109 12.2208 17.065 11.0553 16.5756 9.95617ZM13.5979 18.2993C12.2774 19.6075 10.5242 20.3255 8.65543 20.3255C6.78664 20.3255 5.03343 19.6075 3.71298 18.2993C2.39745 16.9936 1.67207 15.2625 1.67207 13.4208C1.67207 12.3512 1.91305 11.3258 2.38762 10.3717C2.8499 9.4398 3.5384 8.60622 4.37443 7.96444C4.90762 7.55673 5.39123 7.08798 5.81536 6.56777C6.4301 5.81779 6.91205 4.98176 7.24646 4.08425C7.38364 3.71403 7.48331 3.33098 7.54399 2.94085C8.13659 3.48673 8.6333 4.14572 9.04885 4.91783C9.87014 6.45712 10.2488 7.82674 10.175 8.99227C10.1574 9.26678 10.2023 9.54171 10.3062 9.79639C10.4101 10.0511 10.5704 10.2789 10.775 10.4627C10.9524 10.6229 11.1598 10.7463 11.3852 10.8256C11.6106 10.905 11.8495 10.9388 12.0881 10.925C12.5725 10.9004 13.0176 10.6865 13.3421 10.325C13.6692 9.95863 13.952 9.58487 14.188 9.20374C14.5323 9.64389 14.82 10.1234 15.0486 10.6398C15.4396 11.52 15.6388 12.4569 15.6388 13.4208C15.6388 15.2625 14.9134 16.9961 13.5979 18.2993Z" fill="#ffffff"/>
</svg>
