<svg width="32" height="32" viewBox="0 0 32 32" fill="none" xmlns="http://www.w3.org/2000/svg">
<path d="M16 2.66669C15.6463 2.66669 15.3072 2.80716 15.0572 3.05721C14.8071 3.30726 14.6666 3.6464 14.6666 4.00002V6.66669C14.6666 7.02031 14.8071 7.35945 15.0572 7.6095C15.3072 7.85954 15.6463 8.00002 16 8.00002C16.3536 8.00002 16.6927 7.85954 16.9428 7.6095C17.1928 7.35945 17.3333 7.02031 17.3333 6.66669V4.00002C17.3333 3.6464 17.1928 3.30726 16.9428 3.05721C16.6927 2.80716 16.3536 2.66669 16 2.66669ZM28 14.6667H25.3333C24.9797 14.6667 24.6405 14.8072 24.3905 15.0572C24.1404 15.3073 24 15.6464 24 16C24 16.3536 24.1404 16.6928 24.3905 16.9428C24.6405 17.1929 24.9797 17.3334 25.3333 17.3334H28C28.3536 17.3334 28.6927 17.1929 28.9428 16.9428C29.1928 16.6928 29.3333 16.3536 29.3333 16C29.3333 15.6464 29.1928 15.3073 28.9428 15.0572C28.6927 14.8072 28.3536 14.6667 28 14.6667ZM7.99996 16C7.99996 15.6464 7.85948 15.3073 7.60944 15.0572C7.35939 14.8072 7.02025 14.6667 6.66663 14.6667H3.99996C3.64634 14.6667 3.3072 14.8072 3.05715 15.0572C2.8071 15.3073 2.66663 15.6464 2.66663 16C2.66663 16.3536 2.8071 16.6928 3.05715 16.9428C3.3072 17.1929 3.64634 17.3334 3.99996 17.3334H6.66663C7.02025 17.3334 7.35939 17.1929 7.60944 16.9428C7.85948 16.6928 7.99996 16.3536 7.99996 16ZM8.29329 6.66669C8.03338 6.42092 7.68648 6.28847 7.32891 6.29847C6.97134 6.30847 6.63239 6.46011 6.38663 6.72002C6.14086 6.97993 6.00841 7.32683 6.01841 7.6844C6.02841 8.04197 6.18005 8.38092 6.43996 8.62669L8.35996 10.48C8.48881 10.6044 8.6414 10.7016 8.80863 10.7658C8.97586 10.8299 9.1543 10.8597 9.33329 10.8534C9.5129 10.8527 9.69052 10.8157 9.85548 10.7447C10.0204 10.6736 10.1694 10.57 10.2933 10.44C10.5416 10.1902 10.681 9.85227 10.681 9.50002C10.681 9.14777 10.5416 8.80984 10.2933 8.56002L8.29329 6.66669ZM22.6666 10.8534C23.0099 10.852 23.3395 10.7183 23.5866 10.48L25.5066 8.62669C25.7408 8.38196 25.8731 8.05725 25.8766 7.71851C25.8801 7.37978 25.7545 7.05241 25.5254 6.80291C25.2963 6.55341 24.9808 6.40048 24.643 6.37518C24.3051 6.34988 23.9704 6.4541 23.7066 6.66669L21.7866 8.56002C21.5383 8.80984 21.3989 9.14777 21.3989 9.50002C21.3989 9.85227 21.5383 10.1902 21.7866 10.44C22.0175 10.6836 22.3317 10.8312 22.6666 10.8534ZM16 24C15.6463 24 15.3072 24.1405 15.0572 24.3905C14.8071 24.6406 14.6666 24.9797 14.6666 25.3334V28C14.6666 28.3536 14.8071 28.6928 15.0572 28.9428C15.3072 29.1929 15.6463 29.3334 16 29.3334C16.3536 29.3334 16.6927 29.1929 16.9428 28.9428C17.1928 28.6928 17.3333 28.3536 17.3333 28V25.3334C17.3333 24.9797 17.1928 24.6406 16.9428 24.3905C16.6927 24.1405 16.3536 24 16 24ZM23.64 21.52C23.3854 21.2743 23.0435 21.1397 22.6897 21.1459C22.3359 21.1522 21.9991 21.2987 21.7533 21.5534C21.5075 21.808 21.373 22.1498 21.3792 22.5036C21.3855 22.8574 21.532 23.1943 21.7866 23.44L23.7066 25.3334C23.9538 25.5716 24.2833 25.7053 24.6266 25.7067C24.8053 25.7077 24.9823 25.6729 25.1472 25.6041C25.3121 25.5354 25.4616 25.4343 25.5866 25.3067C25.7116 25.1827 25.8108 25.0353 25.8785 24.8728C25.9462 24.7103 25.981 24.536 25.981 24.36C25.981 24.184 25.9462 24.0097 25.8785 23.8473C25.8108 23.6848 25.7116 23.5373 25.5866 23.4134L23.64 21.52ZM8.35996 21.52L6.43996 23.3734C6.31499 23.4973 6.2158 23.6448 6.1481 23.8073C6.08041 23.9697 6.04556 24.144 6.04556 24.32C6.04556 24.496 6.08041 24.6703 6.1481 24.8328C6.2158 24.9953 6.31499 25.1427 6.43996 25.2667C6.56502 25.3943 6.71444 25.4954 6.87935 25.5641C7.04426 25.6329 7.22131 25.6677 7.39996 25.6667C7.72864 25.6695 8.04678 25.5508 8.29329 25.3334L10.2133 23.48C10.4679 23.2343 10.6144 22.8974 10.6207 22.5436C10.627 22.1898 10.4924 21.848 10.2466 21.5934C10.0009 21.3387 9.66401 21.1922 9.3102 21.1859C8.95638 21.1797 8.61457 21.3143 8.35996 21.56V21.52Z" fill="#ffffff"/>
</svg>
